<svg width="520" height="200" viewBox="0 0 520 200" fill="none" xmlns="http://www.w3.org/2000/svg" role="img" aria-label="捏 Knead logo lockup">
  <defs>
    <linearGradient id="clay3" x1="40" y1="36" x2="150" y2="160" gradientUnits="userSpaceOnUse">
      <stop offset="0" stop-color="#E08A5C"/>
      <stop offset="0.55" stop-color="#CB6438"/>
      <stop offset="1" stop-color="#B14E29"/>
    </linearGradient>
    <radialGradient id="dent3" cx="0.42" cy="0.40" r="0.72">
      <stop offset="0" stop-color="#8E3C1E"/>
      <stop offset="0.55" stop-color="#A84A26" stop-opacity="0.55"/>
      <stop offset="1" stop-color="#A84A26" stop-opacity="0"/>
    </radialGradient>
    <radialGradient id="sheen3" cx="0.5" cy="0.5" r="0.5">
      <stop offset="0" stop-color="#FBD9C0" stop-opacity="0.9"/>
      <stop offset="1" stop-color="#FBD9C0" stop-opacity="0"/>
    </radialGradient>
    <filter id="soft3" x="-30%" y="-30%" width="160%" height="160%">
      <feDropShadow dx="0" dy="5" stdDeviation="8" flood-color="#B14E29" flood-opacity="0.26"/>
    </filter>
  </defs>

  <!-- mark -->
  <g transform="translate(28 36) scale(0.52)">
    <path filter="url(#soft3)" fill="url(#clay3)" d="
      M120 26 C166 24 208 52 216 98 C223 138 201 184 156 208
      C118 228 66 220 40 184 C16 152 22 96 52 60 C72 36 94 27 120 26 Z"/>
    <ellipse cx="86" cy="74" rx="34" ry="22" fill="url(#sheen3)" transform="rotate(-24 86 74)"/>
    <ellipse cx="106" cy="116" rx="46" ry="34" fill="url(#dent3)" transform="rotate(-16 106 116)"/>
    <path d="M70 102 C86 84 124 82 146 96" stroke="#8E3C1E" stroke-opacity="0.5" stroke-width="6" stroke-linecap="round" fill="none"/>
    <path d="M72 134 C92 152 130 152 150 132" stroke="#F2B48C" stroke-opacity="0.7" stroke-width="5" stroke-linecap="round" fill="none"/>
  </g>

  <!-- 中文名 捏 -->
  <text x="186" y="118" font-family="'PingFang SC','Hiragino Sans GB','Microsoft YaHei',sans-serif" font-size="104" font-weight="800" fill="#B14E29" letter-spacing="2">捏</text>
  <!-- 英文名 + tagline -->
  <text x="300" y="92" font-family="'Poppins','PingFang SC',sans-serif" font-size="40" font-weight="700" fill="#3A2A22" letter-spacing="1">Knead</text>
  <text x="302" y="128" font-family="'PingFang SC',sans-serif" font-size="19" font-weight="500" fill="#8A6F5F">一句话,捏个 AI 给自己用</text>
</svg>
