<svg width="256" height="256" viewBox="0 0 256 256" fill="none" xmlns="http://www.w3.org/2000/svg" role="img" aria-label="捏 Knead app icon">
  <defs>
    <linearGradient id="bg" x1="0" y1="0" x2="256" y2="256" gradientUnits="userSpaceOnUse">
      <stop offset="0" stop-color="#FFF7ED"/>
      <stop offset="1" stop-color="#FBE9D6"/>
    </linearGradient>
    <linearGradient id="clay2" x1="70" y1="60" x2="196" y2="206" gradientUnits="userSpaceOnUse">
      <stop offset="0" stop-color="#E08A5C"/>
      <stop offset="0.55" stop-color="#CB6438"/>
      <stop offset="1" stop-color="#B14E29"/>
    </linearGradient>
    <radialGradient id="dent2" cx="0.42" cy="0.40" r="0.72">
      <stop offset="0" stop-color="#8E3C1E"/>
      <stop offset="0.55" stop-color="#A84A26" stop-opacity="0.55"/>
      <stop offset="1" stop-color="#A84A26" stop-opacity="0"/>
    </radialGradient>
    <radialGradient id="sheen2" cx="0.5" cy="0.5" r="0.5">
      <stop offset="0" stop-color="#FBD9C0" stop-opacity="0.9"/>
      <stop offset="1" stop-color="#FBD9C0" stop-opacity="0"/>
    </radialGradient>
    <filter id="soft2" x="-20%" y="-20%" width="140%" height="140%">
      <feDropShadow dx="0" dy="6" stdDeviation="9" flood-color="#B14E29" flood-opacity="0.30"/>
    </filter>
  </defs>

  <!-- iOS 风圆角方底 -->
  <rect x="0" y="0" width="256" height="256" rx="58" fill="url(#bg)"/>

  <g transform="translate(28 26) scale(0.835)">
    <path filter="url(#soft2)" fill="url(#clay2)" d="
      M120 26 C166 24 208 52 216 98 C223 138 201 184 156 208
      C118 228 66 220 40 184 C16 152 22 96 52 60 C72 36 94 27 120 26 Z"/>
    <ellipse cx="86" cy="74" rx="34" ry="22" fill="url(#sheen2)" transform="rotate(-24 86 74)"/>
    <ellipse cx="106" cy="116" rx="46" ry="34" fill="url(#dent2)" transform="rotate(-16 106 116)"/>
    <path d="M70 102 C86 84 124 82 146 96" stroke="#8E3C1E" stroke-opacity="0.5" stroke-width="6" stroke-linecap="round" fill="none"/>
    <path d="M72 134 C92 152 130 152 150 132" stroke="#F2B48C" stroke-opacity="0.7" stroke-width="5" stroke-linecap="round" fill="none"/>
  </g>
</svg>
