<svg xmlns="http://www.w3.org/2000/svg" viewBox="0 0 64 64" role="img" aria-label="Knead">
  <defs>
    <linearGradient id="kneadClay" x1="14" y1="10" x2="50" y2="56" gradientUnits="userSpaceOnUse">
      <stop offset="0" stop-color="#FFE8D4"/>
      <stop offset="0.48" stop-color="#F6A779"/>
      <stop offset="1" stop-color="#D86E4C"/>
    </linearGradient>
    <radialGradient id="kneadPress" cx="0" cy="0" r="1" gradientUnits="userSpaceOnUse" gradientTransform="translate(44 19) rotate(130) scale(21 16)">
      <stop offset="0" stop-color="#B75238" stop-opacity="0.48"/>
      <stop offset="0.52" stop-color="#D86E4C" stop-opacity="0.18"/>
      <stop offset="1" stop-color="#FFE3CE" stop-opacity="0"/>
    </radialGradient>
    <filter id="kneadSoftShadow" x="-20%" y="-20%" width="140%" height="145%" color-interpolation-filters="sRGB">
      <feDropShadow dx="0" dy="5" stdDeviation="5" flood-color="#A94B32" flood-opacity="0.18"/>
    </filter>
  </defs>
  <rect x="8" y="8" width="48" height="48" rx="17" fill="url(#kneadClay)" filter="url(#kneadSoftShadow)"/>
  <path d="M48.6 13.4c2.9 6.8-1.7 15.5-9.7 17.9-3.5 1.1-6.1.7-8.3-.3 7.9-.7 14.6-7.1 16-15.8.2-1.1.7-1.6 2-1.8Z" fill="url(#kneadPress)"/>
  <path d="M17.5 32.6c6.8 4.3 15.6 4.4 25.9 0" fill="none" stroke="#FFF3EA" stroke-width="4.2" stroke-linecap="round" opacity="0.55"/>
  <circle cx="23.8" cy="29.8" r="3.2" fill="#211A18"/>
  <circle cx="40.2" cy="29.8" r="3.2" fill="#211A18"/>
  <path d="M27 39.2c2.8 1.8 7.2 1.8 10 0" fill="none" stroke="#211A18" stroke-width="3.4" stroke-linecap="round"/>
  <path d="M18.5 18.3c3.7-3.2 9.1-5 14.7-4.7" fill="none" stroke="#FFF8F2" stroke-width="3" stroke-linecap="round" opacity="0.62"/>
</svg>
